<svg xmlns="http://www.w3.org/2000/svg" viewBox="0 0 374 80.4"><path d="M0 4.6h30.3c4.4 0 8.4.6 11.9 1.9 3.5 1.2 6.5 3 8.9 5.2 2.4 2.3 4.3 5 5.6 8.1 1.3 3.1 2 6.6 2 10.4v.2c0 4.3-.8 8.1-2.3 11.3-1.6 3.2-3.7 6-6.4 8.2-2.7 2.2-5.9 3.8-9.5 4.9-3.6 1.1-7.5 1.6-11.7 1.6H16.3v22.2H0v-74zM29.2 42c4.1 0 7.3-1.1 9.5-3.2 2.3-2.2 3.4-4.8 3.4-8v-.2c0-3.7-1.2-6.5-3.5-8.4-2.4-1.9-5.6-2.9-9.7-2.9H16.3V42h12.9zM69.8 21.9h16.1v56.8H69.8zM101 21.9h16.1V30c.9-1.2 1.9-2.4 3-3.5s2.3-2.1 3.7-2.9c1.3-.9 2.8-1.5 4.5-2 1.7-.5 3.5-.7 5.6-.7 3.7 0 7 .8 9.7 2.3 2.7 1.6 4.8 3.8 6.3 6.7 2.5-3 5.2-5.2 8.3-6.8 3-1.5 6.5-2.3 10.4-2.3 6 0 10.7 1.8 14.1 5.3 3.4 3.5 5.1 8.7 5.1 15.6v37h-16.1V47.1c0-3.8-.8-6.7-2.4-8.6-1.6-1.9-4-2.9-7-2.9s-5.4 1-7.2 2.9c-1.7 1.9-2.6 4.8-2.6 8.6v31.6h-16.1V47.1c0-3.8-.8-6.7-2.4-8.6-1.6-1.9-4-2.9-7-2.9s-5.4 1-7.1 2.9c-1.7 1.9-2.6 4.8-2.6 8.6v31.6H101V21.9zM221.6 79.8c-4 0-8.1-.7-12.3-2.1-4.2-1.4-8.2-3.5-12-6.5l6.9-10.6c3.1 2.3 6.2 4 9.3 5.1 3.1 1.1 5.9 1.7 8.6 1.7 2.3 0 4-.4 5.1-1.2 1.1-.8 1.6-1.8 1.6-3.1v-.2c0-.8-.3-1.6-1-2.2-.6-.6-1.5-1.2-2.6-1.6-1.1-.5-2.3-.9-3.8-1.3-1.4-.4-2.9-.9-4.5-1.4-2-.6-4-1.3-6-2.1s-3.8-1.9-5.5-3.2c-1.6-1.3-2.9-2.9-4-4.8-1-1.9-1.5-4.2-1.5-7v-.2c0-2.9.5-5.5 1.6-7.7s2.6-4.1 4.4-5.7c1.9-1.6 4.1-2.7 6.6-3.5 2.5-.8 5.2-1.2 8.1-1.2 3.6 0 7.3.6 11 1.7 3.7 1.2 7.1 2.8 10.2 4.8l-6.1 11.1c-2.8-1.6-5.6-2.9-8.3-3.9-2.7-1-5.1-1.4-7.1-1.4s-3.5.4-4.4 1.1c-1 .7-1.5 1.7-1.5 2.8v.2c0 .8.3 1.5 1 2.1.6.6 1.5 1.2 2.5 1.7 1.1.5 2.3 1 3.7 1.5 1.4.5 2.8 1 4.4 1.5 2 .6 4 1.4 6 2.3 2 .9 3.9 2 5.5 3.2 1.6 1.3 3 2.8 4 4.7 1.1 1.8 1.6 4.1 1.6 6.7v.2c0 3.2-.5 5.9-1.6 8.2-1.1 2.3-2.6 4.2-4.6 5.7-2 1.5-4.3 2.6-6.9 3.3-2.5.9-5.4 1.3-8.4 1.3zM282.7 80c-4.4 0-8.4-.8-12.2-2.3-3.7-1.5-7-3.6-9.7-6.2-2.7-2.6-4.9-5.8-6.4-9.3-1.6-3.6-2.3-7.4-2.3-11.5v-.2c0-4.1.8-7.9 2.3-11.5 1.6-3.6 3.7-6.7 6.5-9.4s6-4.8 9.7-6.4c3.7-1.6 7.8-2.3 12.3-2.3 4.4 0 8.4.8 12.2 2.3 3.7 1.5 7 3.6 9.7 6.2 2.7 2.6 4.9 5.8 6.4 9.3 1.6 3.6 2.3 7.4 2.3 11.5v.2c0 4.1-.8 7.9-2.3 11.5-1.6 3.6-3.7 6.7-6.5 9.4s-6 4.8-9.7 6.4c-3.8 1.5-7.9 2.3-12.3 2.3zm.2-13.9c2.3 0 4.4-.4 6.2-1.2 1.8-.8 3.3-1.9 4.6-3.3 1.3-1.4 2.2-3.1 2.9-4.9.7-1.9 1-3.9 1-6v-.2c0-2.1-.4-4.1-1.1-6-.7-1.9-1.7-3.5-3.1-5-1.3-1.4-2.9-2.6-4.8-3.4-1.8-.8-3.8-1.3-6-1.3-2.3 0-4.4.4-6.2 1.2-1.8.8-3.3 1.9-4.6 3.3-1.3 1.4-2.2 3.1-2.9 4.9-.7 1.9-1 3.9-1 6v.2c0 2.1.4 4.1 1.1 6 .7 1.9 1.7 3.5 3.1 5 1.3 1.4 2.9 2.6 4.7 3.4 1.8.9 3.9 1.3 6.1 1.3zM325.9 1.4H342v77.3h-11.2l-4.9-11.8V1.4zM357.9 1.4H374v77.3h-11.2l-4.9-11.8V1.4z"/><circle cx="77.9" cy="8.5" r="8.5"/></svg>